<svg width="318" height="72" viewBox="0 0 318 72" fill="none" xmlns="http://www.w3.org/2000/svg">
<path d="M109.75 49.2646C106.13 53.5875 101.572 55.7489 96.0776 55.7489C89.6193 55.7489 85.1532 53.6135 82.6792 49.3427V66.2856C82.6792 67.7699 82.2886 68.9548 81.5073 69.8403C80.7261 70.7517 79.6453 71.2074 78.2651 71.2074C76.9631 71.2074 75.9214 70.7647 75.1401 69.8793C74.2808 68.9158 73.8511 67.7179 73.8511 66.2856V17.7021C73.8511 16.2437 74.2808 15.0198 75.1401 14.0302C75.9214 13.1708 76.9631 12.7411 78.2651 12.7411C79.5151 12.7411 80.6089 13.2099 81.5464 14.1474C82.6141 15.2672 83.1479 16.8166 83.1479 18.7958C85.9604 14.4208 90.4006 12.2333 96.4683 12.2333C102.276 12.2333 106.872 14.551 110.257 19.1864C113.356 23.4052 114.906 28.5354 114.906 34.5771C114.906 40.3062 113.187 45.2021 109.75 49.2646ZM103.304 24.7724C101.065 21.439 98.0959 19.7724 94.3979 19.7724C90.5959 19.7724 87.5881 21.3219 85.3745 24.4208C83.5776 26.9469 82.6792 30.0198 82.6792 33.6396C82.6792 37.3375 83.5646 40.5276 85.3354 43.2099C87.5229 46.5172 90.5438 48.1708 94.3979 48.1708C98.0177 48.1708 100.921 46.6734 103.109 43.6786C105.088 40.9963 106.078 37.7802 106.078 34.0302C106.078 30.6448 105.153 27.5588 103.304 24.7724Z" fill="#434343"/>
<path d="M155.023 37.5849H126.156C126.39 41.5953 128.057 44.6682 131.156 46.8036C133.734 48.6005 136.729 49.4989 140.14 49.4989C142.328 49.4989 144.58 48.9781 146.898 47.9364C147.627 47.5719 149.489 46.6083 152.484 45.0458C153.187 44.6812 153.812 44.4989 154.359 44.4989C155.166 44.4989 155.908 44.8635 156.585 45.5927C157.289 46.3219 157.64 47.1291 157.64 48.0146C157.64 49.9156 155.765 51.7776 152.015 53.6005C147.822 55.6838 143.473 56.7255 138.968 56.7255C132.562 56.7255 127.341 54.6291 123.304 50.4364C119.294 46.2437 117.289 40.9443 117.289 34.538C117.289 28.4703 119.19 23.275 122.992 18.9521C126.976 14.4729 131.963 12.2333 137.953 12.2333C142.223 12.2333 146.117 13.4963 149.632 16.0224C153.044 18.4963 155.57 21.7515 157.21 25.788C158.174 28.1838 158.656 30.6057 158.656 33.0536C158.656 36.0745 157.445 37.5849 155.023 37.5849ZM146.156 22.0771C144.072 19.9937 141.338 18.9521 137.953 18.9521C134.671 18.9521 131.963 20.0198 129.828 22.1552C127.328 24.6291 126.026 27.5719 125.921 30.9833H150.062C150.062 30.9312 150.062 30.8792 150.062 30.8271C150.062 27.5458 148.76 24.6291 146.156 22.0771Z" fill="#434343"/>
<path d="M186.273 19.9286C185.127 20.3713 183.434 21.0224 181.195 21.8818C178.591 22.9495 176.572 24.0693 175.14 25.2411C173.057 27.012 172.015 29.2515 172.015 31.9599V51.1396C172.015 52.676 171.598 53.913 170.765 54.8505C169.932 55.762 168.773 56.2177 167.289 56.2177C165.882 56.2177 164.776 55.762 163.968 54.8505C163.057 53.8349 162.601 52.5979 162.601 51.1396V17.1161C162.601 15.788 163.044 14.7203 163.929 13.913C164.841 13.1057 166.026 12.7021 167.484 12.7021C169.203 12.7021 170.388 13.0666 171.039 13.7958C171.69 14.4989 172.015 15.8791 172.015 17.9364L172.054 19.6943C173.382 17.8193 175.257 16.1656 177.679 14.7333C179.971 13.3791 181.898 12.7021 183.46 12.7021C184.815 12.7021 185.895 13.1448 186.703 14.0302C187.536 14.9156 187.953 16.0875 187.953 17.5458C187.953 18.5094 187.393 19.3036 186.273 19.9286Z" fill="#434343"/>
<path d="M203.89 49.4989C208.526 49.4989 210.843 47.7021 210.843 44.1083C210.843 41.8427 208.513 39.8114 203.851 38.0146C202.08 37.3375 200.309 36.6604 198.539 35.9833C196.481 35.1239 194.789 34.2515 193.46 33.3661C190.153 31.1786 188.5 28.3661 188.5 24.9286C188.5 20.9443 190.049 17.7932 193.148 15.4755C196.039 13.314 199.671 12.2333 204.046 12.2333C207.562 12.2333 210.778 12.8974 213.695 14.2255C216.716 15.6057 218.226 17.3245 218.226 19.3818C218.226 20.4755 217.914 21.3739 217.289 22.0771C216.69 22.7541 215.882 23.0927 214.867 23.0927C214.424 23.0927 212.992 22.5458 210.57 21.4521C207.653 20.1239 205.231 19.4599 203.304 19.4599C199.138 19.4599 197.054 21.2307 197.054 24.7724C197.054 27.1161 199.398 29.1604 204.085 30.9052L209.437 32.8974C216.078 35.3453 219.398 39.0172 219.398 43.913C219.398 47.9234 217.757 51.1005 214.476 53.4443C211.377 55.6318 207.549 56.7255 202.992 56.7255C199.19 56.7255 195.557 55.8791 192.093 54.1864C188.63 52.4937 186.898 50.7359 186.898 48.913C186.898 47.9755 187.276 47.1291 188.031 46.3739C188.786 45.6187 189.619 45.2411 190.531 45.2411C191.572 45.2411 192.901 45.6448 194.515 46.4521C198.682 48.4833 201.807 49.4989 203.89 49.4989Z" fill="#434343"/>
<path d="M229.046 56.2177C226.594 56.2177 224.535 53.5608 224.535 51.2568V18.7177C224.535 16.3091 226.499 13.7568 229.046 13.7568C231.713 13.7568 233.596 16.0715 233.596 18.6396V51.1786C233.596 53.6467 231.634 56.2177 229.046 56.2177Z" fill="#434343"/>
<path d="M269.476 54.9677C266.481 56.1396 263.513 56.7255 260.57 56.7255C254.32 56.7255 249.229 54.538 245.296 50.163C241.494 45.9182 239.593 40.7099 239.593 34.538C239.593 28.4703 241.625 23.1969 245.687 18.7177C249.645 14.3948 254.606 12.2333 260.57 12.2333C266.299 12.2333 270.531 13.4312 273.265 15.8271C273.968 16.4521 274.32 17.2594 274.32 18.2489C274.32 19.3427 273.981 20.3583 273.304 21.2958C272.783 22.025 272.119 22.3896 271.312 22.3896C270.348 22.3896 268.773 21.9859 266.585 21.1786C264.398 20.3713 262.614 19.9677 261.234 19.9677C257.093 19.9677 253.851 21.5432 251.507 24.6943C249.58 27.3245 248.617 30.6057 248.617 34.538C248.617 38.3401 249.645 41.5823 251.703 44.2646C254.151 47.3896 257.328 48.9521 261.234 48.9521C262.901 48.9521 264.932 48.4963 267.328 47.5849C269.359 46.7776 270.479 46.3739 270.687 46.3739C271.729 46.3739 272.588 46.7255 273.265 47.4286C273.968 48.1057 274.32 48.9651 274.32 50.0068C274.32 52.038 272.705 53.6916 269.476 54.9677Z" fill="#434343"/>
<path d="M313.5 56.1786C310.609 56.1786 309.164 53.8479 309.164 49.1864C309.164 49.1083 309.164 49.0302 309.164 48.9521C307.315 54.1344 302.757 56.7255 295.492 56.7255C291.377 56.7255 287.77 55.5146 284.671 53.0927C281.677 50.801 279.489 47.663 278.109 43.6786C277.119 40.8661 276.625 37.8193 276.625 34.538C276.625 28.7047 278.278 23.6265 281.585 19.3036C285.205 14.5901 289.841 12.2333 295.492 12.2333C298.434 12.2333 301.104 12.8193 303.5 13.9911C306.598 15.4755 308.552 17.7281 309.359 20.7489C309.333 20.3323 309.32 19.9286 309.32 19.538C309.32 16.4651 309.776 14.551 310.687 13.7958C311.52 13.0927 312.458 12.7411 313.5 12.7411C315.348 12.7411 316.559 13.3531 317.132 14.5771C317.497 15.3323 317.679 16.8297 317.679 19.0693V49.8896C317.679 52.5719 317.236 54.3818 316.351 55.3193C315.804 55.8922 314.854 56.1786 313.5 56.1786ZM302.562 21.3739C301.052 20.4364 299.281 19.9677 297.25 19.9677C293.5 19.9677 290.531 21.5041 288.343 24.5771C286.416 27.3375 285.453 30.6578 285.453 34.538C285.453 38.288 286.377 41.5041 288.226 44.1864C290.414 47.3635 293.421 48.9521 297.25 48.9521C300.869 48.9521 303.76 47.4026 305.921 44.3036C307.875 41.5432 308.851 38.288 308.851 34.538C308.851 28.4443 306.755 24.0562 302.562 21.3739Z" fill="#434343"/>
<path d="M233.606 4.99193C233.606 7.50323 231.571 9.53903 229.059 9.53903C226.548 9.53903 224.512 7.50323 224.512 4.99193C224.512 2.48063 226.548 0.444824 229.059 0.444824C231.571 0.444824 233.606 2.48063 233.606 4.99193Z" fill="#434343"/>
<path d="M44.0828 7.41797C44.3318 7.48422 44.5698 7.56809 44.7237 7.65384C53.5486 12.5731 59.5511 22.2598 59.5511 33.4052C59.5511 49.5291 46.9887 62.6 31.4921 62.6C27.065 62.6 22.8773 61.5332 19.1536 59.6332C18.9374 59.5228 18.559 59.248 18.4479 59.1696C18.363 59.0585 18.1018 58.5751 18.0322 58.4173C15.9976 53.8006 14.8633 48.6649 14.8633 43.2536C14.8633 25.4423 27.1518 10.6173 43.3888 7.45634C43.4891 7.4368 43.8235 7.41797 44.0828 7.41797Z" fill="url(#paint0_linear_1164_29)"/>
<path d="M12.2853 54.7782C12.4503 54.6572 12.5805 54.43 12.0178 52.9846C9.97783 47.7445 8.85441 42.0162 8.85441 36.0149C8.85441 24.5985 12.9198 14.1701 19.6265 6.21141C19.9198 5.86337 19.8215 5.4678 19.7315 5.39586C19.6415 5.32392 19.4698 5.09937 18.7825 5.39579C8.61214 9.78103 1.45801 20.2102 1.45801 32.3779C1.45801 40.9046 4.97117 48.5775 10.5736 53.9151C11.6855 54.9745 12.1202 54.8993 12.2853 54.7782Z" fill="url(#paint1_linear_1164_29)"/>
<defs>
<linearGradient id="paint0_linear_1164_29" x1="40.7032" y1="5.24658" x2="30.1353" y2="64.0258" gradientUnits="userSpaceOnUse">
<stop stop-color="#FF7448"/>
<stop offset="1" stop-color="#FF2D92"/>
</linearGradient>
<linearGradient id="paint1_linear_1164_29" x1="40.7032" y1="5.24658" x2="30.1353" y2="64.0258" gradientUnits="userSpaceOnUse">
<stop stop-color="#FF7448"/>
<stop offset="1" stop-color="#FF2D92"/>
</linearGradient>
</defs>
</svg>
