<svg width="245" height="71" viewBox="0 0 245 71" fill="none" xmlns="http://www.w3.org/2000/svg">
<path d="M36.7495 49.0248C33.1297 53.3477 28.5724 55.5092 23.0776 55.5092C16.6193 55.5092 12.1532 53.3738 9.6792 49.1029V66.0458C9.6792 67.5302 9.28857 68.7151 8.50732 69.6005C7.72607 70.512 6.64535 70.9677 5.26514 70.9677C3.96305 70.9677 2.92139 70.525 2.14014 69.6396C1.28076 68.676 0.851074 67.4781 0.851074 66.0458V17.4623C0.851074 16.004 1.28076 14.78 2.14014 13.7904C2.92139 12.9311 3.96305 12.5014 5.26514 12.5014C6.51514 12.5014 7.60889 12.9701 8.54639 13.9076C9.6141 15.0274 10.1479 16.5769 10.1479 18.5561C12.9604 14.1811 17.4006 11.9936 23.4683 11.9936C29.2756 11.9936 33.8719 14.3113 37.2573 18.9467C40.3563 23.1654 41.9058 28.2957 41.9058 34.3373C41.9058 40.0665 40.187 44.9623 36.7495 49.0248ZM30.3042 24.5326C28.0646 21.1993 25.0959 19.5326 21.3979 19.5326C17.5959 19.5326 14.5881 21.0821 12.3745 24.1811C10.5776 26.7071 9.6792 29.78 9.6792 33.3998C9.6792 37.0977 10.5646 40.2878 12.3354 42.9701C14.5229 46.2774 17.5438 47.9311 21.3979 47.9311C25.0177 47.9311 27.9214 46.4337 30.1089 43.4389C32.0881 40.7566 33.0776 37.5404 33.0776 33.7904C33.0776 30.405 32.1532 27.3191 30.3042 24.5326Z" fill="url(#paint0_linear_1165_30)"/>
<path d="M82.0229 37.3451H53.1558C53.3901 41.3555 55.0568 44.4285 58.1558 46.5639C60.7339 48.3608 63.7287 49.2592 67.1401 49.2592C69.3276 49.2592 71.5802 48.7384 73.8979 47.6967C74.6271 47.3321 76.4891 46.3686 79.4839 44.8061C80.187 44.4415 80.812 44.2592 81.3589 44.2592C82.1662 44.2592 82.9084 44.6238 83.5854 45.3529C84.2886 46.0821 84.6401 46.8894 84.6401 47.7748C84.6401 49.6759 82.7651 51.5378 79.0151 53.3608C74.8224 55.4441 70.4735 56.4858 65.9683 56.4858C59.562 56.4858 54.3407 54.3894 50.3042 50.1967C46.2938 46.004 44.2886 40.7045 44.2886 34.2983C44.2886 28.2305 46.1896 23.0352 49.9917 18.7123C53.9761 14.2332 58.9631 11.9936 64.9526 11.9936C69.2235 11.9936 73.1167 13.2566 76.6323 15.7826C80.0438 18.2566 82.5698 21.5118 84.2104 25.5483C85.174 27.9441 85.6558 30.366 85.6558 32.8139C85.6558 35.8347 84.4448 37.3451 82.0229 37.3451ZM73.1558 21.8373C71.0724 19.754 68.3381 18.7123 64.9526 18.7123C61.6714 18.7123 58.9631 19.78 56.8276 21.9154C54.3276 24.3894 53.0256 27.3321 52.9214 30.7436H77.062C77.062 30.6915 77.062 30.6394 77.062 30.5873C77.062 27.3061 75.7599 24.3894 73.1558 21.8373Z" fill="url(#paint1_linear_1165_30)"/>
<path d="M113.273 19.6889C112.127 20.1316 110.434 20.7826 108.195 21.642C105.591 22.7097 103.572 23.8295 102.14 25.0014C100.057 26.7722 99.0151 29.0118 99.0151 31.7201V50.8998C99.0151 52.4363 98.5985 53.6733 97.7651 54.6108C96.9318 55.5222 95.7729 55.9779 94.2886 55.9779C92.8823 55.9779 91.7756 55.5222 90.9683 54.6108C90.0568 53.5951 89.6011 52.3582 89.6011 50.8998V16.8764C89.6011 15.5483 90.0438 14.4805 90.9292 13.6733C91.8407 12.866 93.0256 12.4623 94.4839 12.4623C96.2026 12.4623 97.3875 12.8269 98.0386 13.5561C98.6896 14.2592 99.0151 15.6394 99.0151 17.6967L99.0542 19.4545C100.382 17.5795 102.257 15.9259 104.679 14.4936C106.971 13.1394 108.898 12.4623 110.46 12.4623C111.815 12.4623 112.895 12.905 113.703 13.7904C114.536 14.6759 114.953 15.8477 114.953 17.3061C114.953 18.2696 114.393 19.0639 113.273 19.6889Z" fill="url(#paint2_linear_1165_30)"/>
<path d="M130.89 49.2592C135.526 49.2592 137.843 47.4623 137.843 43.8686C137.843 41.6029 135.513 39.5717 130.851 37.7748C129.08 37.0977 127.309 36.4207 125.539 35.7436C123.481 34.8842 121.789 34.0118 120.46 33.1264C117.153 30.9389 115.5 28.1264 115.5 24.6889C115.5 20.7045 117.049 17.5535 120.148 15.2358C123.039 13.0743 126.671 11.9936 131.046 11.9936C134.562 11.9936 137.778 12.6576 140.695 13.9858C143.716 15.366 145.226 17.0847 145.226 19.142C145.226 20.2358 144.914 21.1342 144.289 21.8373C143.69 22.5144 142.882 22.8529 141.867 22.8529C141.424 22.8529 139.992 22.3061 137.57 21.2123C134.653 19.8842 132.231 19.2201 130.304 19.2201C126.138 19.2201 124.054 20.991 124.054 24.5326C124.054 26.8764 126.398 28.9207 131.085 30.6654L136.437 32.6576C143.078 35.1055 146.398 38.7774 146.398 43.6733C146.398 47.6837 144.757 50.8608 141.476 53.2045C138.377 55.392 134.549 56.4858 129.992 56.4858C126.19 56.4858 122.557 55.6394 119.093 53.9467C115.63 52.254 113.898 50.4962 113.898 48.6733C113.898 47.7358 114.276 46.8894 115.031 46.1342C115.786 45.379 116.619 45.0014 117.531 45.0014C118.572 45.0014 119.901 45.405 121.515 46.2123C125.682 48.2436 128.807 49.2592 130.89 49.2592Z" fill="url(#paint3_linear_1165_30)"/>
<path d="M156.046 55.9779C153.594 55.9779 151.535 53.3211 151.535 51.017V18.4779C151.535 16.0694 153.499 13.517 156.046 13.517C158.713 13.517 160.596 15.8318 160.596 18.3998V50.9389C160.596 53.407 158.634 55.9779 156.046 55.9779Z" fill="url(#paint4_linear_1165_30)"/>
<path d="M196.476 54.7279C193.481 55.8998 190.513 56.4858 187.57 56.4858C181.32 56.4858 176.229 54.2983 172.296 49.9233C168.494 45.6785 166.593 40.4701 166.593 34.2983C166.593 28.2305 168.625 22.9571 172.687 18.4779C176.645 14.155 181.606 11.9936 187.57 11.9936C193.299 11.9936 197.531 13.1915 200.265 15.5873C200.968 16.2123 201.32 17.0196 201.32 18.0092C201.32 19.1029 200.981 20.1186 200.304 21.0561C199.783 21.7852 199.119 22.1498 198.312 22.1498C197.348 22.1498 195.773 21.7462 193.585 20.9389C191.398 20.1316 189.614 19.7279 188.234 19.7279C184.093 19.7279 180.851 21.3035 178.507 24.4545C176.58 27.0847 175.617 30.366 175.617 34.2983C175.617 38.1003 176.645 41.3425 178.703 44.0248C181.151 47.1498 184.328 48.7123 188.234 48.7123C189.901 48.7123 191.932 48.2566 194.328 47.3451C196.359 46.5378 197.479 46.1342 197.687 46.1342C198.729 46.1342 199.588 46.4858 200.265 47.1889C200.968 47.866 201.32 48.7253 201.32 49.767C201.32 51.7983 199.705 53.4519 196.476 54.7279Z" fill="url(#paint5_linear_1165_30)"/>
<path d="M240.5 55.9389C237.609 55.9389 236.164 53.6082 236.164 48.9467C236.164 48.8686 236.164 48.7904 236.164 48.7123C234.315 53.8946 229.757 56.4858 222.492 56.4858C218.377 56.4858 214.77 55.2748 211.671 52.8529C208.677 50.5613 206.489 47.4233 205.109 43.4389C204.119 40.6264 203.625 37.5795 203.625 34.2983C203.625 28.4649 205.278 23.3868 208.585 19.0639C212.205 14.3503 216.841 11.9936 222.492 11.9936C225.434 11.9936 228.104 12.5795 230.5 13.7514C233.598 15.2358 235.552 17.4884 236.359 20.5092C236.333 20.0925 236.32 19.6889 236.32 19.2983C236.32 16.2253 236.776 14.3113 237.687 13.5561C238.52 12.8529 239.458 12.5014 240.5 12.5014C242.348 12.5014 243.559 13.1134 244.132 14.3373C244.497 15.0925 244.679 16.5899 244.679 18.8295V49.6498C244.679 52.3321 244.236 54.142 243.351 55.0795C242.804 55.6524 241.854 55.9389 240.5 55.9389ZM229.562 21.1342C228.052 20.1967 226.281 19.7279 224.25 19.7279C220.5 19.7279 217.531 21.2644 215.343 24.3373C213.416 27.0977 212.453 30.418 212.453 34.2983C212.453 38.0483 213.377 41.2644 215.226 43.9467C217.414 47.1238 220.421 48.7123 224.25 48.7123C227.869 48.7123 230.76 47.1628 232.921 44.0639C234.875 41.3035 235.851 38.0483 235.851 34.2983C235.851 28.2045 233.755 23.8165 229.562 21.1342Z" fill="url(#paint6_linear_1165_30)"/>
<path d="M160.606 4.75218C160.606 7.26348 158.571 9.29929 156.059 9.29929C153.548 9.29929 151.512 7.26348 151.512 4.75218C151.512 2.24089 153.548 0.205078 156.059 0.205078C158.571 0.205078 160.606 2.24089 160.606 4.75218Z" fill="url(#paint7_linear_1165_30)"/>
<defs>
<linearGradient id="paint0_linear_1165_30" x1="165.571" y1="0.205078" x2="161.625" y2="74.8625" gradientUnits="userSpaceOnUse">
<stop stop-color="#FF7448"/>
<stop offset="1" stop-color="#FF2D92"/>
</linearGradient>
<linearGradient id="paint1_linear_1165_30" x1="165.571" y1="0.205078" x2="161.625" y2="74.8625" gradientUnits="userSpaceOnUse">
<stop stop-color="#FF7448"/>
<stop offset="1" stop-color="#FF2D92"/>
</linearGradient>
<linearGradient id="paint2_linear_1165_30" x1="165.571" y1="0.205078" x2="161.625" y2="74.8625" gradientUnits="userSpaceOnUse">
<stop stop-color="#FF7448"/>
<stop offset="1" stop-color="#FF2D92"/>
</linearGradient>
<linearGradient id="paint3_linear_1165_30" x1="165.571" y1="0.205078" x2="161.625" y2="74.8625" gradientUnits="userSpaceOnUse">
<stop stop-color="#FF7448"/>
<stop offset="1" stop-color="#FF2D92"/>
</linearGradient>
<linearGradient id="paint4_linear_1165_30" x1="165.571" y1="0.205078" x2="161.625" y2="74.8625" gradientUnits="userSpaceOnUse">
<stop stop-color="#FF7448"/>
<stop offset="1" stop-color="#FF2D92"/>
</linearGradient>
<linearGradient id="paint5_linear_1165_30" x1="165.571" y1="0.205078" x2="161.625" y2="74.8625" gradientUnits="userSpaceOnUse">
<stop stop-color="#FF7448"/>
<stop offset="1" stop-color="#FF2D92"/>
</linearGradient>
<linearGradient id="paint6_linear_1165_30" x1="165.571" y1="0.205078" x2="161.625" y2="74.8625" gradientUnits="userSpaceOnUse">
<stop stop-color="#FF7448"/>
<stop offset="1" stop-color="#FF2D92"/>
</linearGradient>
<linearGradient id="paint7_linear_1165_30" x1="165.571" y1="0.205078" x2="161.625" y2="74.8625" gradientUnits="userSpaceOnUse">
<stop stop-color="#FF7448"/>
<stop offset="1" stop-color="#FF2D92"/>
</linearGradient>
</defs>
</svg>
