<svg width="24" height="25" viewBox="0 0 24 25" fill="none" xmlns="http://www.w3.org/2000/svg">
<path d="M15.4233 6.33455C15.486 6.35125 15.546 6.37238 15.5848 6.39399C17.8087 7.63365 19.3213 10.0748 19.3213 12.8834C19.3213 16.9467 16.1555 20.2406 12.2504 20.2406C11.1347 20.2406 10.0794 19.9718 9.14099 19.493C9.08651 19.4652 8.99115 19.3959 8.96317 19.3762C8.94177 19.3482 8.87593 19.2264 8.85841 19.1866C8.34567 18.0232 8.05983 16.729 8.05983 15.3653C8.05983 10.8768 11.1566 7.14079 15.2484 6.34422C15.2737 6.3393 15.3579 6.33455 15.4233 6.33455Z" fill="url(#paint0_linear)"/>
<path d="M7.41016 18.2695C7.45175 18.239 7.48456 18.1818 7.34275 17.8175C6.82867 16.497 6.54556 15.0534 6.54556 13.5411C6.54556 10.6641 7.57007 8.03611 9.26018 6.03049C9.33409 5.94279 9.30932 5.8431 9.28664 5.82497C9.26395 5.80684 9.22069 5.75026 9.04749 5.82495C6.48451 6.93005 4.68164 9.55824 4.68164 12.6246C4.68164 14.7733 5.56697 16.7069 6.9788 18.052C7.25902 18.319 7.36857 18.3 7.41016 18.2695Z" fill="url(#paint1_linear)"/>
<defs>
<linearGradient id="paint0_linear" x1="15.9611" y1="5.78735" x2="9.80086" y2="19.6675" gradientUnits="userSpaceOnUse">
<stop stop-color="#FFB74A"/>
<stop offset="1" stop-color="#FF429D"/>
</linearGradient>
<linearGradient id="paint1_linear" x1="15.9611" y1="5.78735" x2="9.80086" y2="19.6675" gradientUnits="userSpaceOnUse">
<stop stop-color="#FFB74A"/>
<stop offset="1" stop-color="#FF429D"/>
</linearGradient>
</defs>
</svg>
